# xmcd
#
# Track frame offsets:
#	182
#	12045
#	25360
#	37407
#	49945
#	83520
#	100520
#	116820
#	132570
#	149695
#	163895
#	175645
#	187607
#	200182
#	214632
#	227995
#	247570
#	261985
#	276070
#	291835
#
# Disc length: 4061
#
# Revision: 3
# Processed by: cddbd v1.5.1PL0 Copyright (c) Steve Scherf et al.
# Submitted via: DiscPlay 4.0.4
# Normalized: r1:DSETVAR1,TDELIM( - ),TSWAP
#
DISCID=230fdb14
DTITLE=Various Artist - The Real Blues Ballads - Vol. 1
DYEAR=1900
DGENRE=
TTITLE0=Etta James - I'd Rather Go Blind
TTITLE1=Howlin' Wolf - I've Got a Woman
TTITLE2=Little Walter - Temperature
TTITLE3=Bo Diddley - I'm a Man
TTITLE4=Buddy Guy - Stone Crazy
TTITLE5=Little Milton - Please, Please, Please
TTITLE6=Memphis Slim - Trouble in My Mind
TTITLE7=John Lee Hooker - Hey Baby
TTITLE8=Howlin' Wolf - The Red Rooster
TTITLE9=Muddy Waters - Forty Days and Forty Nights
TTITLE10=Jimmy McCracklin - Minnie Lee
TTITLE11=Paul Gayten - Down Boy
TTITLE12=J. B. Lenoir - Korea Blues
TTITLE13=Lowell Fulson - Reconsider Baby
TTITLE14=Jimmy Rogers - Left Me With a Broken Heart
TTITLE15=Koko Taylor - Insane Asylum
TTITLE16=Muddy Waters - I Feel Like Going Home
TTITLE17=Big Bill Broonzy - Romance Without Finance
TTITLE18=Bo Diddley - Cops and Robbers
TTITLE19=John Lee Hooker - Hobo Blues
EXTD=
EXTT0=E. Jordon - B. Foster\n
EXTT1=C. Burnett\n
EXTT2=W. Jacobs - Cohen\n
EXTT3=McDaniel\n
EXTT4=B. Guy\n
EXTT5=J. Brown - J. Terry\n
EXTT6=Jones\n
EXTT7=John Lee Hooker\n
EXTT8=W. Dixon\n
EXTT9=B. Roth\n
EXTT10=McCracklin\n
EXTT11=Unknown\n
EXTT12=J. B. Lenoir\n
EXTT13=L. Fulson\n
EXTT14=J. Rogers\n
EXTT15=W. Dixon\n
EXTT16=M. Morganfield\n
EXTT17=Broonzy\n
EXTT18=E. McDaniel\n
EXTT19=John Lee Hooker\n
PLAYORDER=
